<svg id="visual" viewBox="0 0 900 600" width="900" height="600" xmlns="http://www.w3.org/2000/svg" xmlns:xlink="http://www.w3.org/1999/xlink" version="1.1"><rect x="0" y="0" width="900" height="600" fill="#001829"></rect><path d="M0 350L15 354.3C30 358.7 60 367.3 90 380.3C120 393.3 150 410.7 180 412.8C210 415 240 402 270 389C300 376 330 363 360 356C390 349 420 348 450 345.3C480 342.7 510 338.3 540 349C570 359.7 600 385.3 630 392.5C660 399.7 690 388.3 720 372.8C750 357.3 780 337.7 810 337.3C840 337 870 356 885 365.5L900 375L900 601L885 601C870 601 840 601 810 601C780 601 750 601 720 601C690 601 660 601 630 601C600 601 570 601 540 601C510 601 480 601 450 601C420 601 390 601 360 601C330 601 300 601 270 601C240 601 210 601 180 601C150 601 120 601 90 601C60 601 30 601 15 601L0 601Z" fill="#302c28"></path><path d="M0 420L15 414.8C30 409.7 60 399.3 90 389.7C120 380 150 371 180 373C210 375 240 388 270 400.8C300 413.7 330 426.3 360 436.5C390 446.7 420 454.3 450 450.8C480 447.3 510 432.7 540 423.7C570 414.7 600 411.3 630 405.5C660 399.7 690 391.3 720 388.8C750 386.3 780 389.7 810 388C840 386.3 870 379.7 885 376.3L900 373L900 601L885 601C870 601 840 601 810 601C780 601 750 601 720 601C690 601 660 601 630 601C600 601 570 601 540 601C510 601 480 601 450 601C420 601 390 601 360 601C330 601 300 601 270 601C240 601 210 601 180 601C150 601 120 601 90 601C60 601 30 601 15 601L0 601Z" fill="#3c3227"></path><path d="M0 451L15 442.7C30 434.3 60 417.7 90 414.5C120 411.3 150 421.7 180 419C210 416.3 240 400.7 270 403.3C300 406 330 427 360 427.3C390 427.7 420 407.3 450 409.2C480 411 510 435 540 449.2C570 463.3 600 467.7 630 463.5C660 459.3 690 446.7 720 446.7C750 446.7 780 459.3 810 463.5C840 467.7 870 463.3 885 461.2L900 459L900 601L885 601C870 601 840 601 810 601C780 601 750 601 720 601C690 601 660 601 630 601C600 601 570 601 540 601C510 601 480 601 450 601C420 601 390 601 360 601C330 601 300 601 270 601C240 601 210 601 180 601C150 601 120 601 90 601C60 601 30 601 15 601L0 601Z" fill="#483926"></path><path d="M0 481L15 482.8C30 484.7 60 488.3 90 484C120 479.7 150 467.3 180 458.3C210 449.3 240 443.7 270 442.8C300 442 330 446 360 449.5C390 453 420 456 450 460.2C480 464.3 510 469.7 540 469.2C570 468.7 600 462.3 630 466.3C660 470.3 690 484.7 720 493.3C750 502 780 505 810 498.2C840 491.3 870 474.7 885 466.3L900 458L900 601L885 601C870 601 840 601 810 601C780 601 750 601 720 601C690 601 660 601 630 601C600 601 570 601 540 601C510 601 480 601 450 601C420 601 390 601 360 601C330 601 300 601 270 601C240 601 210 601 180 601C150 601 120 601 90 601C60 601 30 601 15 601L0 601Z" fill="#543f24"></path><path d="M0 511L15 510.3C30 509.7 60 508.3 90 499.8C120 491.3 150 475.7 180 468.3C210 461 240 462 270 468.7C300 475.3 330 487.7 360 494.3C390 501 420 502 450 500.7C480 499.3 510 495.7 540 490C570 484.3 600 476.7 630 474.3C660 472 690 475 720 478.5C750 482 780 486 810 489.3C840 492.7 870 495.3 885 496.7L900 498L900 601L885 601C870 601 840 601 810 601C780 601 750 601 720 601C690 601 660 601 630 601C600 601 570 601 540 601C510 601 480 601 450 601C420 601 390 601 360 601C330 601 300 601 270 601C240 601 210 601 180 601C150 601 120 601 90 601C60 601 30 601 15 601L0 601Z" fill="#604622"></path><path d="M0 526L15 529.3C30 532.7 60 539.3 90 539.3C120 539.3 150 532.7 180 529.2C210 525.7 240 525.3 270 520.7C300 516 330 507 360 503.2C390 499.3 420 500.7 450 505.5C480 510.3 510 518.7 540 524C570 529.3 600 531.7 630 535.7C660 539.7 690 545.3 720 546.2C750 547 780 543 810 536.3C840 529.7 870 520.3 885 515.7L900 511L900 601L885 601C870 601 840 601 810 601C780 601 750 601 720 601C690 601 660 601 630 601C600 601 570 601 540 601C510 601 480 601 450 601C420 601 390 601 360 601C330 601 300 601 270 601C240 601 210 601 180 601C150 601 120 601 90 601C60 601 30 601 15 601L0 601Z" fill="#6c4c1f"></path><path d="M0 558L15 554.2C30 550.3 60 542.7 90 541.7C120 540.7 150 546.3 180 553C210 559.7 240 567.3 270 564.5C300 561.7 330 548.3 360 542.8C390 537.3 420 539.7 450 546.5C480 553.3 510 564.7 540 566C570 567.3 600 558.7 630 553.3C660 548 690 546 720 543.5C750 541 780 538 810 540.5C840 543 870 551 885 555L900 559L900 601L885 601C870 601 840 601 810 601C780 601 750 601 720 601C690 601 660 601 630 601C600 601 570 601 540 601C510 601 480 601 450 601C420 601 390 601 360 601C330 601 300 601 270 601C240 601 210 601 180 601C150 601 120 601 90 601C60 601 30 601 15 601L0 601Z" fill="#78531c"></path></svg>