<svg id="visual" viewBox="0 0 900 600" width="900" height="600" xmlns="http://www.w3.org/2000/svg" xmlns:xlink="http://www.w3.org/1999/xlink" version="1.1"><rect x="0" y="0" width="900" height="600" fill="#001829"></rect><path d="M0 447L25 452.5C50 458 100 469 150 464.5C200 460 250 440 300 412.5C350 385 400 350 450 337.2C500 324.3 550 333.7 600 372C650 410.3 700 477.7 750 510.8C800 544 850 543 875 542.5L900 542L900 601L875 601C850 601 800 601 750 601C700 601 650 601 600 601C550 601 500 601 450 601C400 601 350 601 300 601C250 601 200 601 150 601C100 601 50 601 25 601L0 601Z" fill="#252525"></path><path d="M0 377L25 385.7C50 394.3 100 411.7 150 410C200 408.3 250 387.7 300 380C350 372.3 400 377.7 450 387.3C500 397 550 411 600 410.7C650 410.3 700 395.7 750 410C800 424.3 850 467.7 875 489.3L900 511L900 601L875 601C850 601 800 601 750 601C700 601 650 601 600 601C550 601 500 601 450 601C400 601 350 601 300 601C250 601 200 601 150 601C100 601 50 601 25 601L0 601Z" fill="#41362a"></path><path d="M0 396L25 394.8C50 393.7 100 391.3 150 410C200 428.7 250 468.3 300 487C350 505.7 400 503.3 450 492.7C500 482 550 463 600 458.5C650 454 700 464 750 469.2C800 474.3 850 474.7 875 474.8L900 475L900 601L875 601C850 601 800 601 750 601C700 601 650 601 600 601C550 601 500 601 450 601C400 601 350 601 300 601C250 601 200 601 150 601C100 601 50 601 25 601L0 601Z" fill="#5e492e"></path><path d="M0 491L25 506.5C50 522 100 553 150 556.5C200 560 250 536 300 513.3C350 490.7 400 469.3 450 467.8C500 466.3 550 484.7 600 487.3C650 490 700 477 750 481.7C800 486.3 850 508.7 875 519.8L900 531L900 601L875 601C850 601 800 601 750 601C700 601 650 601 600 601C550 601 500 601 450 601C400 601 350 601 300 601C250 601 200 601 150 601C100 601 50 601 25 601L0 601Z" fill="#7c5c32"></path><path d="M0 482L25 496.3C50 510.7 100 539.3 150 545C200 550.7 250 533.3 300 516.7C350 500 400 484 450 493C500 502 550 536 600 535.2C650 534.3 700 498.7 750 480C800 461.3 850 459.7 875 458.8L900 458L900 601L875 601C850 601 800 601 750 601C700 601 650 601 600 601C550 601 500 601 450 601C400 601 350 601 300 601C250 601 200 601 150 601C100 601 50 601 25 601L0 601Z" fill="#9a7036"></path><path d="M0 585L25 574.5C50 564 100 543 150 537.2C200 531.3 250 540.7 300 545.7C350 550.7 400 551.3 450 557.5C500 563.7 550 575.3 600 580.2C650 585 700 583 750 573.2C800 563.3 850 545.7 875 536.8L900 528L900 601L875 601C850 601 800 601 750 601C700 601 650 601 600 601C550 601 500 601 450 601C400 601 350 601 300 601C250 601 200 601 150 601C100 601 50 601 25 601L0 601Z" fill="#ba8438"></path><path d="M0 530L25 531C50 532 100 534 150 530.7C200 527.3 250 518.7 300 525C350 531.3 400 552.7 450 556.8C500 561 550 548 600 550.5C650 553 700 571 750 570C800 569 850 549 875 539L900 529L900 601L875 601C850 601 800 601 750 601C700 601 650 601 600 601C550 601 500 601 450 601C400 601 350 601 300 601C250 601 200 601 150 601C100 601 50 601 25 601L0 601Z" fill="#db993b"></path><path d="M0 578L25 576.2C50 574.3 100 570.7 150 570C200 569.3 250 571.7 300 567C350 562.3 400 550.7 450 549C500 547.3 550 555.7 600 560.7C650 565.7 700 567.3 750 572.7C800 578 850 587 875 591.5L900 596L900 601L875 601C850 601 800 601 750 601C700 601 650 601 600 601C550 601 500 601 450 601C400 601 350 601 300 601C250 601 200 601 150 601C100 601 50 601 25 601L0 601Z" fill="#fcaf3c"></path></svg>